<?xml version="1.0" encoding="utf-8"?>
<!-- Generator: Adobe Illustrator 22.1.0, SVG Export Plug-In . SVG Version: 6.00 Build 0)  -->
<svg version="1.1" id="Ebene_1" xmlns="http://www.w3.org/2000/svg" xmlns:xlink="http://www.w3.org/1999/xlink" x="0px" y="0px"
	 viewBox="0 0 2397.7 691" style="enable-background:new 0 0 2397.7 691;" xml:space="preserve">
<path style="fill:#0D64AA;" d="M1024.6,495c-2.8,7.7-8.5,11.3-13.4,11.3c-4.9,0-9.9-3.5-13.4-11.3L864,146.7
	c-3.5-9.8,3.5-19,14.1-19c4.9,0,9.9,2.8,12.7,9.2l120.4,313.8l120.4-313.8c2.8-6.3,7.7-9.2,12.7-9.2c10.6,0,17.6,9.2,14.1,19
	L1024.6,495z"/>
<path style="fill:#0069A4;" d="M1230.9,141.7c0-9.2,7-14.1,14.1-14.1c7,0,14.1,4.9,14.1,14.1v348.3c0,9.2-7,14.1-14.1,14.1
	c-7,0-14.1-4.9-14.1-14.1V141.7z"/>
<path style="fill:#0D64AA;" d="M1448.5,511.2c-33.8,0-81-14.8-101.4-45.7c-2.1-2.8-2.8-5.6-2.8-7.7c0-7.7,7-14.1,14.8-14.1
	c7.7,0,10.6,5.6,14.8,10.6c19,19.7,47.9,28.8,74.6,28.8c57,0,95.8-33.8,95.8-76c0-107-197.9-69-197.9-192.8
	c0-61.2,53.5-93.6,107-93.6c37.3,0,81,19.7,101.4,52.1c2.1,2.8,2.8,5.6,2.8,7.7c0,7.7-7.7,14.1-14.8,14.1c-8.5,0-11.3-6.3-16.2-12
	c-18.3-21.1-44.4-33.8-73.2-33.8c-44.4,0-78.9,25.3-78.9,65.4c0,95.7,197.9,59.8,197.9,192.8
	C1572.4,470.4,1515.4,511.2,1448.5,511.2z"/>
<path style="fill:#0D64AA;" d="M1657.6,141.7c0-9.2,7-14.1,14.1-14.1c7,0,14.1,4.9,14.1,14.1v348.3c0,9.2-7,14.1-14.1,14.1
	c-7,0-14.1-4.9-14.1-14.1V141.7z"/>
<path style="fill:#0D64AA;" d="M1911.8,511.2c-71.8,0-130.3-58.4-130.3-130.2V250.8c0-71.8,58.5-130.2,130.3-130.2
	c71.8,0,130.3,58.4,130.3,130.2V381C2042.1,452.8,1983.6,511.2,1911.8,511.2z M2013.9,250.8c0-56.3-45.8-102-102.1-102
	c-56.3,0-102.1,45.7-102.1,102V381c0,56.3,45.8,102,102.1,102c56.3,0,102.1-45.7,102.1-102V250.8z"/>
<path style="fill:#0D64AA;" d="M2383.6,504.1c-7,0-14.1-4.9-14.1-14.1V250.8c0-56.3-45.8-102-102.1-102
	c-56.3,0-102.1,45.7-102.1,102v239.2c0,9.2-7,14.1-14.1,14.1s-14.1-4.9-14.1-14.1V250.8c0-71.8,58.5-130.2,130.3-130.2
	s130.3,58.4,130.3,130.2v239.2C2397.7,499.2,2390.6,504.1,2383.6,504.1z"/>
<polygon style="fill:#A09E9C;" points="0,128 84.5,128 84.5,503.6 0,503.6 0,128 "/>
<path style="fill:#A09E9C;" d="M109.5,74V0h144.7v344.8c0,48.6,40.2,87.8,87.9,87.8c48.4,0,89.6-36.5,89.6-88.2V128h81.8l0,216.7
	c-0.4,49.3,39.7,87.8,89,87.8c47.5,0,89.3-38.5,89.3-87.8V128h81.3l0,216.7c0,105.9-79.9,164.4-158.8,164.4
	c-60.1,0-106.4-18.8-140.4-71.6c-35.3,52.6-80.8,71.6-140.9,71.6c-78.9,0-160.5-58.5-160.5-164.4V74.1L109.5,74L109.5,74z"/>
<g>
	<path style="fill:#A09E9C;" d="M1330.1,616.1l-19.4,70.5c-0.9,2.9-2.8,4.5-4.6,4.5c-1.9,0-3.9-1.5-4.7-4.4l-16.8-55.1l-16.7,55.1
		c-0.9,2.9-2.7,4.4-4.7,4.4c-1.9,0-3.9-1.6-4.6-4.5l-19.4-70.5c-0.1-0.5-0.2-1-0.2-1.5c0-2.9,2.5-4.6,5-4.6c1.9,0,3.8,1.1,4.6,3.6
		l14.9,54.3l16.5-54.4c0.8-2.9,2.7-4.4,4.6-4.4c1.9,0,3.8,1.5,4.7,4.4l16.5,54.4l14.9-54.3c0.7-2.5,2.6-3.6,4.6-3.6
		c2.5,0,5,1.7,5,4.6C1330.3,615.1,1330.2,615.6,1330.1,616.1z"/>
	<path style="fill:#A09E9C;" d="M1399.6,689.3h-36.3c-2.6,0-4.8-2.2-4.8-4.8v-69.7c0-2.6,2.2-4.8,4.8-4.8h36.3
		c3.2,0,4.8,2.4,4.8,4.8c0,2.4-1.6,4.8-4.8,4.8h-31.5v23.4h28.6c3.2,0,4.8,2.4,4.8,4.8c0,2.4-1.6,4.8-4.8,4.8h-28.6v26.9h31.5
		c3.2,0,4.8,2.4,4.8,4.8C1404.4,686.9,1402.8,689.3,1399.6,689.3z"/>
	<path style="fill:#A09E9C;" d="M1460.4,689.3h-20.1c-2.6,0-4.8-2.2-4.8-4.8v-69.7c0-2.6,2.2-4.8,4.8-4.8h20.1
		c11.9,0,21.6,9.7,21.6,21.5c0,6.5-3.6,13.4-9.7,16.6c5.4,3.2,11.1,10.4,11.1,18.3C1483.5,679.1,1473.1,689.3,1460.4,689.3z
		 M1460.4,643.4c6.6,0,11.9-5.3,11.9-11.8c0-6.6-5.3-11.9-11.9-11.9h-15.3v23.7H1460.4z M1460.4,653h-15.3v26.6h15.3
		c7.4,0,13.4-6,13.4-13.3C1473.8,659,1467.8,653,1460.4,653z"/>
	<path style="fill:#A09E9C;" d="M1555.7,689.3h-36.3c-2.6,0-4.8-2.2-4.8-4.8v-69.7c0-2.6,2.2-4.8,4.8-4.8h36.3
		c3.2,0,4.8,2.4,4.8,4.8c0,2.4-1.6,4.8-4.8,4.8h-31.5v23.4h28.6c3.2,0,4.8,2.4,4.8,4.8c0,2.4-1.6,4.8-4.8,4.8h-28.6v26.9h31.5
		c3.2,0,4.8,2.4,4.8,4.8C1560.6,686.9,1558.9,689.3,1555.7,689.3z"/>
	<path style="fill:#A09E9C;" d="M1643.5,684.5c0,3.6-2,5.6-4.4,5.6c-1.6,0-3.3-1-4.6-3.1l-33.2-54.9v52.4c0,3.2-2.4,4.8-4.8,4.8
		c-2.4,0-4.8-1.6-4.8-4.8v-69.7c0-3.6,2-5.6,4.4-5.6c1.6,0,3.3,1,4.7,3.1l33.2,54.9v-52.4c0-3.2,2.4-4.8,4.8-4.8
		c2.4,0,4.8,1.6,4.8,4.8V684.5z"/>
	<path style="fill:#A09E9C;" d="M1722,619.7h-18.4v64.9c0,3.2-2.4,4.8-4.8,4.8c-2.4,0-4.8-1.6-4.8-4.8v-64.9h-18.4
		c-3.2,0-4.8-2.4-4.8-4.8c0-2.4,1.6-4.8,4.8-4.8h46.5c3.2,0,4.8,2.4,4.8,4.8C1726.8,617.2,1725.2,619.7,1722,619.7z"/>
	<path style="fill:#A09E9C;" d="M1839.1,616.1l-19.4,70.5c-0.9,2.9-2.8,4.5-4.6,4.5c-1.9,0-3.9-1.5-4.7-4.4l-16.8-55.1l-16.7,55.1
		c-0.9,2.9-2.7,4.4-4.7,4.4c-1.9,0-3.9-1.6-4.6-4.5l-19.4-70.5c-0.1-0.5-0.2-1-0.2-1.5c0-2.9,2.5-4.6,5-4.6c1.9,0,3.8,1.1,4.6,3.6
		l14.9,54.3l16.5-54.4c0.8-2.9,2.7-4.4,4.6-4.4c1.9,0,3.8,1.5,4.7,4.4l16.5,54.4l14.9-54.3c0.7-2.5,2.6-3.6,4.6-3.6
		c2.5,0,5,1.7,5,4.6C1839.3,615.1,1839.2,615.6,1839.1,616.1z"/>
	<path style="fill:#A09E9C;" d="M1899.5,689.3h-31c-3.2,0-4.8-2.4-4.8-4.8c0-2.4,1.6-4.8,4.8-4.8h10.7v-60h-10.7
		c-3.2,0-4.8-2.4-4.8-4.8c0-2.4,1.6-4.8,4.8-4.8h31c3.2,0,4.8,2.4,4.8,4.8c0,2.4-1.6,4.8-4.8,4.8h-10.7v60h10.7
		c3.2,0,4.8,2.4,4.8,4.8C1904.3,686.9,1902.6,689.3,1899.5,689.3z"/>
	<path style="fill:#A09E9C;" d="M1982.3,680.3c0,0-0.6,0.8-1.6,1.7c-5.7,5.4-13.5,8.2-21.3,8.2c-14.9,0-26.9-12-26.9-26.9v-27.5
		c0-14.9,12-26.9,26.9-26.9c7.8,0,17.9,3.5,23,10c0.8,1,1.2,2,1.2,3c0,2.7-2.4,4.9-5,4.9c-1.3,0-2.6-0.6-3.7-1.9l-0.8-0.8
		c-3.9-3.7-9.3-5.5-14.6-5.5c-9.5,0-17.2,7.7-17.2,17.2v27.5c0,9.5,7.7,17.2,17.2,17.2c5.2,0,11.9-2,15.4-6.3
		c1.1-1.3,2.3-1.8,3.7-1.8c2.6,0,5.2,2.2,5.2,4.8C1983.7,678.3,1983.3,679.4,1982.3,680.3z"/>
	<path style="fill:#A09E9C;" d="M2064.8,689.4c-1.4,0-2.7-0.6-3.8-2l-25.8-34.6l-10.9,12.5v19.2c0,3.2-2.4,4.8-4.8,4.8
		c-2.4,0-4.8-1.6-4.8-4.8v-69.7c0-3.2,2.4-4.8,4.8-4.8c2.4,0,4.8,1.6,4.8,4.8v35.8l33.8-39c1.1-1.3,2.3-1.7,3.6-1.7
		c2.6,0,5,2.3,5,4.9c0,1.1-0.4,2.1-1.3,3.2l-23.7,27.3l26.9,36.3c0.8,1,1.1,2,1.1,2.9C2069.8,687.2,2067.3,689.4,2064.8,689.4z"/>
	<path style="fill:#A09E9C;" d="M2140.1,689.3h-36.3c-2.6,0-4.8-2.2-4.8-4.8v-69.7c0-3.2,2.4-4.8,4.8-4.8c2.4,0,4.8,1.6,4.8,4.8
		v64.9h31.5c3.2,0,4.8,2.4,4.8,4.8C2144.9,686.9,2143.3,689.3,2140.1,689.3z"/>
	<path style="fill:#A09E9C;" d="M2226.9,663.4c0,14.9-12,26.9-26.9,26.9s-26.9-12-26.9-26.9v-48.6c0-3.2,2.4-4.8,4.8-4.8
		s4.8,1.6,4.8,4.8v48.6c0,9.5,7.8,17.2,17.2,17.2s17.2-7.7,17.2-17.2v-48.6c0-3.2,2.4-4.8,4.8-4.8c2.4,0,4.8,1.6,4.8,4.8V663.4z"/>
	<path style="fill:#A09E9C;" d="M2311.8,684.5c0,3.6-2,5.6-4.4,5.6c-1.6,0-3.3-1-4.6-3.1l-33.2-54.9v52.4c0,3.2-2.4,4.8-4.8,4.8
		c-2.4,0-4.8-1.6-4.8-4.8v-69.7c0-3.6,2-5.6,4.4-5.6c1.6,0,3.3,1,4.7,3.1l33.2,54.9v-52.4c0-3.2,2.4-4.8,4.8-4.8s4.8,1.6,4.8,4.8
		V684.5z"/>
	<path style="fill:#A09E9C;" d="M2397.7,663.4c0,14.9-12,26.9-26.9,26.9c-14.9,0-26.9-12-26.9-26.9v-27.5c0-14.9,12-26.9,26.9-26.9
		c7.8,0,17.9,3.5,23,10c0.8,1,1.2,2,1.2,3c0,2.7-2.4,4.9-5,4.9c-1.3,0-2.6-0.6-3.7-1.9l-0.8-0.8c-3.9-3.7-9.3-5.5-14.6-5.5
		c-9.5,0-17.2,7.7-17.2,17.2v27.5c0,9.5,7.7,17.2,17.2,17.2s17.2-7.7,17.2-17.2v-8.5h-16.5c-3.2,0-4.8-2.4-4.8-4.8
		c0-2.4,1.6-4.8,4.8-4.8h21.3c2.6,0,4.8,2.2,4.8,4.8V663.4z"/>
</g>
</svg>
